<?xml version="1.0" standalone="no"?><!-- Generator: Gravit.io --><svg xmlns="http://www.w3.org/2000/svg" xmlns:xlink="http://www.w3.org/1999/xlink" style="isolation:isolate" viewBox="0 0 612 612" width="612" height="612"><defs><clipPath id="_clipPath_aD4ZkaBVZuD1mggj2chHJvSRBk9rGn96"><rect width="612" height="612"/></clipPath></defs><g clip-path="url(#_clipPath_aD4ZkaBVZuD1mggj2chHJvSRBk9rGn96)"><defs><filter id="PW623FgyDFvQjn8OVCluWHhnozHMrgVC" x="-200%" y="-200%" width="400%" height="400%" filterUnits="objectBoundingBox" color-interpolation-filters="sRGB"><feOffset xmlns="http://www.w3.org/2000/svg" in="SourceGraphic" dx="0" dy="0"/><feGaussianBlur xmlns="http://www.w3.org/2000/svg" stdDeviation="2.146804531419514" result="pf_100_offsetBlur"/><feComposite xmlns="http://www.w3.org/2000/svg" in="SourceGraphic" in2="pf_100_offsetBlur" result="pf_100_inverse" operator="out"/><feFlood xmlns="http://www.w3.org/2000/svg" flood-color="#000000" flood-opacity="0.5" result="pf_100_color"/><feComposite xmlns="http://www.w3.org/2000/svg" in="pf_100_color" in2="pf_100_inverse" operator="in" result="pf_100_shadow"/><feComposite xmlns="http://www.w3.org/2000/svg" in="pf_100_shadow" in2="SourceGraphic" operator="over"/></filter></defs><g filter="url(#PW623FgyDFvQjn8OVCluWHhnozHMrgVC)"><path d=" M 155.953 5 L 461.047 5 C 544.36 5 612 72.64 612 155.953 L 612 461.047 C 612 544.36 544.36 612 461.047 612 L 155.953 612 C 72.64 612 5 544.36 5 461.047 L 5 155.953 C 5 72.64 72.64 5 155.953 5 Z " fill="rgb(0,0,255)"/></g><g><path d=" M 300.954 409.864 L 300.954 120.31 L 511.961 120.31 L 511.961 161.704 L 342.348 161.704 L 342.348 244.491 L 487.125 244.491 L 487.125 285.885 L 342.348 285.885 L 342.348 409.864 L 300.954 409.864 Z " fill="rgb(255,94,0)"/><path d=" M 144.615 496.69 L 105.039 496.69 L 105.039 194.819 L 144.615 194.819 L 144.615 370.086 L 255.47 370.086 L 255.47 194.819 L 295.248 194.819 L 295.248 409.864 L 255.47 409.864 L 255.47 371.903 L 255.47 371.903 Q 255.268 379.778 251.936 386.643 L 251.936 386.643 L 251.936 386.643 Q 248.604 393.509 243.254 398.658 L 243.254 398.658 L 243.254 398.658 Q 237.903 403.807 230.835 406.835 L 230.835 406.835 L 230.835 406.835 Q 223.768 409.864 215.893 409.864 L 215.893 409.864 L 144.615 409.864 L 144.615 496.69 Z " fill="rgb(255,255,255)"/></g></g></svg>